<svg xmlns="http://www.w3.org/2000/svg" version="1.1" xmlns:xlink="http://www.w3.org/1999/xlink" xmlns:svgjs="http://svgjs.com/svgjs" width="1436" height="551" preserveAspectRatio="none" viewBox="0 0 1436 551"><g mask="url(&quot;#SvgjsMask1018&quot;)" fill="none"><path d="M1459.9333333333334 551L0 551 L0 332.47Q15.85 276.52, 71.8 292.37Q139.06 239.96, 191.46666666666667 307.22Q250.78 294.73, 263.26666666666665 354.04Q290.11 309.08, 335.06666666666666 335.92Q413.27 294.46, 454.73333333333335 372.66Q505.18 303.44, 574.4 353.88Q604.95 264.76, 694.0666666666666 295.31Q738.27 267.71, 765.8666666666666 311.91Q812.86 287.11, 837.6666666666665 334.1Q910.15 286.92, 957.3333333333331 359.4Q968.59 298.86, 1029.1333333333332 310.12Q1056.97 266.15, 1100.9333333333332 293.99Q1177.06 250.45, 1220.6 326.58Q1273.96 260.28, 1340.2666666666667 313.64Q1425.44 279.15, 1459.9333333333334 364.33z" fill="#182f5d"></path><path d="M1555.6666666666667 551L0 551 L0 418.29Q68.56 367.18, 119.66666666666667 435.74Q152.19 348.59, 239.33333333333334 381.11Q305.21 327.32, 359 393.2Q402 316.53, 478.6666666666667 359.53Q575.39 336.59, 598.3333333333334 433.32Q603.44 366.63, 670.1333333333333 371.74Q698.54 328.35, 741.9333333333333 356.76Q793.1 336.13, 813.7333333333332 387.29Q868.23 322.12, 933.3999999999999 376.62Q987.35 310.91, 1053.0666666666666 364.86Q1141.52 333.64, 1172.7333333333333 422.09Q1195.68 373.24, 1244.5333333333333 396.19Q1310.21 342.2, 1364.2 407.88Q1414.96 386.84, 1436 437.6Q1472.59 354.52, 1555.6666666666667 391.11z" fill="#25467d"></path><path d="M1555.6666666666665 551L0 551 L0 510.09Q32.78 423.21, 119.66666666666667 455.99Q200.31 416.97, 239.33333333333334 497.61Q267.97 406.58, 359 435.21Q428.79 385.33, 478.6666666666667 455.12Q562.49 419.27, 598.3333333333334 503.09Q623.97 456.93, 670.1333333333333 482.57Q702.14 394.91, 789.8 426.92Q865.93 383.39, 909.4666666666666 459.52Q963.29 393.68, 1029.1333333333332 447.51Q1083.24 429.81, 1100.9333333333332 483.92Q1141.95 453.14, 1172.7333333333331 494.16Q1216.82 466.44, 1244.533333333333 510.53Q1268.44 414.77, 1364.1999999999998 438.68Q1409.33 412.01, 1435.9999999999998 457.14Q1504.75 406.22, 1555.6666666666665 474.97z" fill="#356cb1"></path><path d="M1531.7333333333333 551L0 551 L0 544.84Q40.66 513.71, 71.8 554.37Q116.74 479.65, 191.46666666666667 524.59Q242.26 455.71, 311.1333333333333 506.5Q361.62 437.32, 430.8 487.81Q483.57 468.78, 502.6 521.56Q527.75 474.91, 574.4 500.06Q671.25 477.24, 694.0666666666666 574.09Q706.26 514.48, 765.8666666666666 526.67Q837.57 478.71, 885.5333333333332 550.42Q930.57 523.66, 957.3333333333331 568.69Q957.36 496.92, 1029.1333333333332 496.95Q1083.01 431.16, 1148.8 485.03Q1200.76 465.2, 1220.6 517.16Q1264.88 489.64, 1292.3999999999999 533.93Q1361.11 482.98, 1412.0666666666666 551.69Q1444.71 464.67, 1531.7333333333333 497.31z" fill="white"></path></g><defs><mask id="SvgjsMask1018"><rect width="1436" height="551" fill="#ffffff"></rect></mask></defs></svg>