<svg id="visual" viewBox="0 0 900 600" width="900" height="600" xmlns="http://www.w3.org/2000/svg" xmlns:xlink="http://www.w3.org/1999/xlink" version="1.1"><path d="M0 379L21.5 378.3C43 377.7 86 376.3 128.8 382.2C171.7 388 214.3 401 257.2 417C300 433 343 452 385.8 465.8C428.7 479.7 471.3 488.3 514.2 475.5C557 462.7 600 428.3 642.8 425.7C685.7 423 728.3 452 771.2 456.8C814 461.7 857 442.3 878.5 432.7L900 423L900 601L878.5 601C857 601 814 601 771.2 601C728.3 601 685.7 601 642.8 601C600 601 557 601 514.2 601C471.3 601 428.7 601 385.8 601C343 601 300 601 257.2 601C214.3 601 171.7 601 128.8 601C86 601 43 601 21.5 601L0 601Z" fill="#d09fbf" stroke-linecap="round" stroke-linejoin="miter"></path></svg>